<svg width="18" height="18" viewBox="0 0 18 18" fill="none" xmlns="http://www.w3.org/2000/svg">
<path d="M8.89984 6.6165C9.9665 6.6665 10.2415 7.57484 10.2582 7.99984H11.7498C11.6832 6.34984 10.5082 5.3415 8.87484 5.3415C7.03317 5.3415 5.6665 6.49984 5.6665 9.1165C5.6665 10.7332 6.4415 12.6498 8.8665 12.6498C10.7165 12.6498 11.7082 11.2748 11.7332 10.1915H10.2415C10.2165 10.6832 9.8665 11.3415 8.88317 11.3915C7.7915 11.3582 7.33317 10.5082 7.33317 9.1165C7.33317 6.70817 8.39984 6.63317 8.89984 6.6165ZM8.99984 0.666504C4.39984 0.666504 0.666504 4.39984 0.666504 8.99984C0.666504 13.5998 4.39984 17.3332 8.99984 17.3332C13.5998 17.3332 17.3332 13.5998 17.3332 8.99984C17.3332 4.39984 13.5998 0.666504 8.99984 0.666504ZM8.99984 15.6665C5.32484 15.6665 2.33317 12.6748 2.33317 8.99984C2.33317 5.32484 5.32484 2.33317 8.99984 2.33317C12.6748 2.33317 15.6665 5.32484 15.6665 8.99984C15.6665 12.6748 12.6748 15.6665 8.99984 15.6665Z" fill="white" fill-opacity="0.7"/>
</svg>
